<?xml version="1.0" encoding="UTF-8" standalone="no"?>
<!-- Created with Inkscape (http://www.inkscape.org/) -->

<svg
   width="37.714104mm"
   height="9.2147779mm"
   viewBox="0 0 37.714104 9.214778"
   version="1.1"
   id="svg5"
   inkscape:version="1.1.2 (0a00cf5339, 2022-02-04)"
   sodipodi:docname="logo-long.svg"
   xmlns:inkscape="http://www.inkscape.org/namespaces/inkscape"
   xmlns:sodipodi="http://sodipodi.sourceforge.net/DTD/sodipodi-0.dtd"
   xmlns="http://www.w3.org/2000/svg"
   xmlns:svg="http://www.w3.org/2000/svg">
  <sodipodi:namedview
     id="namedview7"
     pagecolor="#ffffff"
     bordercolor="#666666"
     borderopacity="1.0"
     inkscape:pageshadow="2"
     inkscape:pageopacity="0.0"
     inkscape:pagecheckerboard="0"
     inkscape:document-units="mm"
     showgrid="false"
     inkscape:zoom="2.9041807"
     inkscape:cx="82.295155"
     inkscape:cy="37.359934"
     inkscape:window-width="1920"
     inkscape:window-height="990"
     inkscape:window-x="1440"
     inkscape:window-y="1424"
     inkscape:window-maximized="1"
     inkscape:current-layer="text2168" />
  <defs
     id="defs2" />
  <g
     inkscape:label="Layer 1"
     inkscape:groupmode="layer"
     id="layer1"
     transform="translate(-95.021706,-146.23109)">
    <g
       aria-label="Our Turn"
       id="text2168"
       style="font-size:10.5833px;line-height:1.25;stroke-width:0.264583">
      <path
         d="m 98.264872,146.33927 q 0.973664,0 1.640412,0.44449 0.677336,0.43392 1.005416,1.2065 0.33866,0.762 0.33866,1.75683 0,0.99483 -0.33866,1.79916 -0.32808,0.79375 -1.005416,1.25941 -0.666748,0.45508 -1.640412,0.45508 -0.973663,0 -1.650994,-0.45508 -0.666748,-0.46566 -1.005414,-1.25941 -0.328082,-0.80433 -0.328082,-1.79916 0,-0.99483 0.328082,-1.75683 0.338666,-0.77258 1.005414,-1.2065 0.677331,-0.44449 1.650994,-0.44449 z m 0,6.62514 q 0.740831,0 1.259413,-0.43391 0.529165,-0.43392 0.793745,-1.16417 0.26459,-0.74083 0.26459,-1.61924 0,-0.86783 -0.26459,-1.57691 -0.26458,-0.70908 -0.793745,-1.12183 -0.518582,-0.41275 -1.259413,-0.41275 -0.74083,0 -1.269995,0.41275 -0.518582,0.41275 -0.783165,1.12183 -0.264582,0.70908 -0.264582,1.57691 0,0.87841 0.264582,1.61924 0.264583,0.73025 0.783165,1.16417 0.529165,0.43391 1.269995,0.43391 z"
         style="font-family:'PP Cirka';-inkscape-font-specification:'PP Cirka, Normal'"
         id="path13432" />
      <path
         d="m 103.747,153.27133 q -0.65617,0 -0.97367,-0.37042 -0.31749,-0.37041 -0.31749,-1.13241 v -2.58233 q 0,-0.381 -0.1905,-0.52916 -0.17992,-0.14817 -0.43392,-0.14817 v -0.10583 h 0.73025 0.48683 v 3.17499 q 0,0.71966 0.20108,1.05833 0.21167,0.33866 0.68792,0.33866 0.62441,0 0.99483,-0.64558 0.381,-0.65616 0.381,-2.03199 h 0.27516 v 1.59808 h -0.3175 q -0.10583,0.56091 -0.49741,0.97366 -0.39158,0.40217 -1.02658,0.40217 z m 1.56633,-4.08516 q 0,-0.381 -0.1905,-0.52916 -0.17992,-0.14817 -0.43392,-0.14817 v -0.10583 h 0.73025 0.47625 v 4.00049 q 0,0.381 0.1905,0.52916 0.1905,0.14817 0.4445,0.14817 v 0.10583 h -0.74083 -0.47625 z"
         style="font-family:'PP Cirka';-inkscape-font-specification:'PP Cirka, Normal'"
         id="path13429" />
      <path
         d="m 108.42481,152.4035 q 0,0.381 0.17992,0.52916 0.1905,0.14817 0.4445,0.14817 v 0.10583 h -0.73025 -0.37042 -0.74083 v -0.10583 q 0.254,0 0.4445,-0.14817 0.1905,-0.14816 0.1905,-0.52916 v -3.21733 q 0,-0.381 -0.1905,-0.52916 -0.1905,-0.14817 -0.4445,-0.14817 v -0.10583 h 0.74083 0.47625 z m 0.0318,-2.286 q 0.0953,-0.66674 0.45508,-1.21708 0.37042,-0.56091 0.97367,-0.56091 0.254,0 0.45508,0.0953 0.20108,0.0847 0.28575,0.21167 l -0.27517,0.76199 -0.0423,-0.0106 q 0.0212,-0.24342 -0.14817,-0.40217 -0.15875,-0.16933 -0.47625,-0.16933 -0.56091,0 -0.91016,0.68792 -0.34925,0.67733 -0.34925,2.25424 h -0.0529 v -1.651 z"
         style="font-family:'PP Cirka';-inkscape-font-specification:'PP Cirka, Normal'"
         id="path13426" />
      <path
         d="m 116.52101,152.32941 q 0,0.41275 0.22225,0.58208 0.22225,0.15875 0.52916,0.15875 v 0.11642 h -0.87841 -0.37041 -0.889 v -0.11642 q 0.30691,0 0.52916,-0.15875 0.23284,-0.16933 0.23284,-0.58208 v -5.88431 h 0.62441 z m -3.10091,-5.95839 q 0.11642,0.0423 0.29634,0.0635 0.1905,0.0106 0.47624,0.0106 h 4.03224 q 0.28575,0 0.46567,-0.0106 0.1905,-0.0212 0.30691,-0.0635 l 0.0318,0.30691 0.127,1.10066 -0.11641,0.0212 q -0.0423,-0.381 -0.24342,-0.66675 -0.1905,-0.29633 -0.60325,-0.29633 h -3.96874 q -0.41274,0 -0.61383,0.28575 -0.1905,0.28575 -0.23283,0.65616 l -0.11642,-0.0106 0.127,-1.09008 z"
         style="font-family:'PP Cirka';-inkscape-font-specification:'PP Cirka, Normal'"
         id="path13423" />
      <path
         d="m 120.34156,153.27133 q -0.65616,0 -0.97366,-0.37042 -0.3175,-0.37041 -0.3175,-1.13241 v -2.58233 q 0,-0.381 -0.1905,-0.52916 -0.17992,-0.14817 -0.43392,-0.14817 v -0.10583 h 0.73025 0.48683 v 3.17499 q 0,0.71966 0.20109,1.05833 0.21166,0.33866 0.68791,0.33866 0.62441,0 0.99483,-0.64558 0.381,-0.65616 0.381,-2.03199 h 0.27516 v 1.59808 h -0.31749 q -0.10584,0.56091 -0.49742,0.97366 -0.39158,0.40217 -1.02658,0.40217 z m 1.56633,-4.08516 q 0,-0.381 -0.1905,-0.52916 -0.17992,-0.14817 -0.43392,-0.14817 v -0.10583 h 0.73025 0.47625 v 4.00049 q 0,0.381 0.1905,0.52916 0.1905,0.14817 0.4445,0.14817 v 0.10583 h -0.74083 -0.47625 z"
         style="font-family:'PP Cirka';-inkscape-font-specification:'PP Cirka, Normal'"
         id="path13420" />
      <path
         d="m 125.01937,152.4035 q 0,0.381 0.17992,0.52916 0.1905,0.14817 0.4445,0.14817 v 0.10583 h -0.73025 -0.37042 -0.74083 v -0.10583 q 0.254,0 0.4445,-0.14817 0.1905,-0.14816 0.1905,-0.52916 v -3.21733 q 0,-0.381 -0.1905,-0.52916 -0.1905,-0.14817 -0.4445,-0.14817 v -0.10583 h 0.74083 0.47625 z m 0.0318,-2.286 q 0.0953,-0.66674 0.45508,-1.21708 0.37042,-0.56091 0.97367,-0.56091 0.254,0 0.45508,0.0953 0.20108,0.0847 0.28575,0.21167 l -0.27517,0.76199 -0.0423,-0.0106 q 0.0212,-0.24342 -0.14817,-0.40217 -0.15875,-0.16933 -0.47624,-0.16933 -0.56092,0 -0.91017,0.68792 -0.34925,0.67733 -0.34925,2.25424 h -0.0529 v -1.651 z"
         style="font-family:'PP Cirka';-inkscape-font-specification:'PP Cirka, Normal'"
         id="path13417" />
      <path
         d="m 129.09393,151.28167 h -0.27517 v -1.59808 h 0.3175 q 0.10583,-0.55033 0.508,-0.96308 0.40216,-0.41275 1.02658,-0.41275 0.66674,0 0.98424,0.41275 0.32809,0.41275 0.32809,1.19591 v 2.48708 q 0,0.381 0.17991,0.52916 0.1905,0.14817 0.4445,0.14817 v 0.10583 h -0.73025 -0.381 -0.74083 v -0.10583 q 0.254,0 0.4445,-0.14817 0.1905,-0.14816 0.1905,-0.52916 v -2.40241 q 0,-0.71967 -0.21166,-1.05833 -0.21167,-0.33867 -0.6985,-0.33867 -0.61383,0 -1.00542,0.65617 -0.38099,0.65616 -0.38099,2.02141 z m 0,1.12183 q 0,0.381 0.17991,0.52916 0.1905,0.14817 0.4445,0.14817 v 0.10583 h -0.73025 -0.37041 -0.74083 v -0.10583 q 0.25399,0 0.44449,-0.14817 0.1905,-0.14816 0.1905,-0.52916 v -3.21733 q 0,-0.381 -0.1905,-0.52916 -0.1905,-0.14817 -0.44449,-0.14817 v -0.10583 h 0.74083 0.47625 z"
         style="font-family:'PP Cirka';-inkscape-font-specification:'PP Cirka, Normal'"
         id="path13414" />
    </g>
  </g>
</svg>
