<?xml version="1.0" encoding="UTF-8" standalone="no"?>
<!-- Created with Inkscape (http://www.inkscape.org/) -->

<svg
   width="12.660504mm"
   height="12mm"
   viewBox="0 0 12.660504 12"
   version="1.1"
   id="svg5"
   inkscape:version="1.1.2 (0a00cf5339, 2022-02-04)"
   sodipodi:docname="favicon.svg"
   xmlns:inkscape="http://www.inkscape.org/namespaces/inkscape"
   xmlns:sodipodi="http://sodipodi.sourceforge.net/DTD/sodipodi-0.dtd"
   xmlns="http://www.w3.org/2000/svg"
   xmlns:svg="http://www.w3.org/2000/svg">
  <sodipodi:namedview
     id="namedview7"
     pagecolor="#ffffff"
     bordercolor="#666666"
     borderopacity="1.0"
     inkscape:pageshadow="2"
     inkscape:pageopacity="0.0"
     inkscape:pagecheckerboard="0"
     inkscape:document-units="mm"
     showgrid="false"
     inkscape:zoom="8.2142634"
     inkscape:cx="20.452229"
     inkscape:cy="27.695727"
     inkscape:window-width="1920"
     inkscape:window-height="990"
     inkscape:window-x="1440"
     inkscape:window-y="1424"
     inkscape:window-maximized="1"
     inkscape:current-layer="text2168" />
  <defs
     id="defs2" />
  <g
     inkscape:label="Layer 1"
     inkscape:groupmode="layer"
     id="layer1"
     transform="translate(-94.855927,-144.44997)">
    <g
       aria-label="Our Turn"
       id="text2168"
       style="font-size:10.5833px;line-height:1.25;stroke-width:0.264583">
      <rect
         style="fill:#000000;fill-opacity:1;stroke:none;stroke-width:2.165"
         id="rect13922"
         width="12.660504"
         height="12"
         x="94.855927"
         y="144.44997"
         ry="1.6384121" />
      <path
         d="m 98.484584,147.07369 q 0.922055,0 1.553456,0.42093 0.64144,0.41092 0.95213,1.14255 0.32071,0.72161 0.32071,1.66371 0,0.9421 -0.32071,1.7038 -0.31069,0.75168 -0.95213,1.19265 -0.631401,0.43096 -1.553456,0.43096 -0.922055,0 -1.563485,-0.43096 -0.631407,-0.44097 -0.952123,-1.19265 -0.310692,-0.7617 -0.310692,-1.7038 0,-0.9421 0.310692,-1.66371 0.320716,-0.73163 0.952123,-1.14255 0.64143,-0.42093 1.563485,-0.42093 z m 0,6.27398 q 0.701563,0 1.192658,-0.41091 0.501108,-0.41092 0.751668,-1.10247 0.25057,-0.70156 0.25057,-1.53341 0,-0.82183 -0.25057,-1.49333 -0.25056,-0.67149 -0.751668,-1.06236 -0.491095,-0.39088 -1.192658,-0.39088 -0.701563,0 -1.20268,0.39088 -0.491095,0.39087 -0.741654,1.06236 -0.250558,0.6715 -0.250558,1.49333 0,0.83185 0.250558,1.53341 0.250559,0.69155 0.741654,1.10247 0.501117,0.41091 1.20268,0.41091 z"
         style="font-family:'PP Cirka';-inkscape-font-specification:'PP Cirka, Normal';fill:#ffffff;fill-opacity:0.997823;stroke-width:0.250559"
         id="path13432" />
      <path
         d="m 104.24727,152.74633 q 0,0.39087 0.21047,0.55122 0.21047,0.15034 0.50111,0.15034 v 0.11025 h -0.83185 -0.35078 -0.84188 v -0.11025 q 0.29064,0 0.50111,-0.15034 0.2205,-0.16035 0.2205,-0.55122 v -5.57242 h 0.59132 z m -2.93655,-5.64257 q 0.11025,0.0401 0.28063,0.0601 0.1804,0.01 0.451,0.01 h 3.81851 q 0.27061,0 0.44099,-0.01 0.1804,-0.0201 0.29064,-0.0601 l 0.0301,0.29064 0.12027,1.04232 -0.11024,0.0201 q -0.0401,-0.36081 -0.23052,-0.63141 -0.1804,-0.28063 -0.57128,-0.28063 h -3.75838 q -0.39086,0 -0.58129,0.27061 -0.1804,0.2706 -0.22049,0.62138 l -0.11025,-0.01 0.12027,-1.0323 z"
         style="font-family:'PP Cirka';-inkscape-font-specification:'PP Cirka, Normal';fill:#ffffff;fill-opacity:0.997823;stroke-width:0.250559"
         id="path13423" />
    </g>
  </g>
</svg>
